<svg width="24" height="24" viewBox="0 0 24 24" fill="none" xmlns="http://www.w3.org/2000/svg">
<path d="M20.317 3.575C18.7873 2.846 17.147 2.30891 15.4319 2.00129C15.4007 1.99535 15.3695 2.01019 15.3534 2.03986C15.1424 2.42957 14.9087 2.93798 14.7451 3.33759C12.9004 3.05075 11.0652 3.05075 9.25832 3.33759C9.09465 2.9291 8.85248 2.42957 8.64057 2.03986C8.62448 2.01118 8.59328 1.99634 8.56205 2.00129C6.84791 2.30792 5.20756 2.84502 3.67693 3.575C3.66368 3.58093 3.65233 3.59083 3.64479 3.60368C0.533392 8.43162 -0.31895 13.1409 0.0991801 17.7918C0.101072 17.8145 0.11337 17.8363 0.130398 17.8501C2.18321 19.4159 4.17171 20.3665 6.12328 20.9965C6.15451 21.0064 6.18761 20.9946 6.20748 20.9679C6.66913 20.3131 7.08064 19.6227 7.43348 18.8966C7.4543 18.8541 7.43442 18.8036 7.39186 18.7868C6.73913 18.5297 6.1176 18.2161 5.51973 17.86C5.47244 17.8313 5.46865 17.7611 5.51216 17.7275C5.63797 17.6295 5.76382 17.5277 5.88396 17.4248C5.90569 17.406 5.93598 17.402 5.96153 17.4139C9.88928 19.2765 14.1415 19.2765 18.023 17.4139C18.0485 17.4011 18.0788 17.405 18.1015 17.4238C18.2216 17.5267 18.3475 17.6295 18.4742 17.7275C18.5177 17.7611 18.5149 17.8313 18.4676 17.86C17.8697 18.223 17.2482 18.5297 16.5945 18.7858C16.552 18.8027 16.533 18.8541 16.5538 18.8966C16.9143 19.6216 17.3258 20.3121 17.7789 20.9669C17.7978 20.9946 17.8319 21.0064 17.8631 20.9965C19.8241 20.3665 21.8126 19.4159 23.8654 17.8501C23.8834 17.8363 23.8948 17.8155 23.8967 17.7928C24.3971 12.4158 23.0585 7.74517 20.3482 3.60466C20.3416 3.59083 20.3303 3.58093 20.317 3.575ZM8.02002 14.9599C6.8375 14.9599 5.86313 13.8323 5.86313 12.4475C5.86313 11.0627 6.8186 9.93511 8.02002 9.93511C9.23087 9.93511 10.1958 11.0726 10.1769 12.4475C10.1769 13.8323 9.22141 14.9599 8.02002 14.9599ZM15.9947 14.9599C14.8123 14.9599 13.8379 13.8323 13.8379 12.4475C13.8379 11.0627 14.7933 9.93511 15.9947 9.93511C17.2056 9.93511 18.1705 11.0726 18.1516 12.4475C18.1516 13.8323 17.2056 14.9599 15.9947 14.9599Z" fill="#9FA0A0"/>
</svg>
