<svg width="715" height="144" viewBox="0 0 715 144" fill="none" xmlns="http://www.w3.org/2000/svg">
<path fill-rule="evenodd" clip-rule="evenodd" d="M90 72C90 42.7289 66.2711 19 37 19L53.0711 2.92892C54.9464 1.05356 57.49 -8.95645e-07 60.1421 -1.01157e-06L107.858 -3.0973e-06C110.51 -3.21323e-06 113.054 1.05357 114.929 2.92892L176.929 64.9289C180.834 68.8342 180.834 75.1658 176.929 79.0711L114.929 141.071C113.054 142.946 110.51 144 107.858 144L60.1421 144C57.49 144 54.9464 142.946 53.0711 141.071L37 125C66.2711 125 90 101.271 90 72Z" fill="#18E098"/>
<circle cx="37" cy="72" r="37" transform="rotate(-90 37 72)" fill="#108B5F"/>
<path d="M262.433 59.0923C262.182 56.3319 261.066 54.1863 259.083 52.6556C257.126 51.0997 254.328 50.3218 250.689 50.3218C248.28 50.3218 246.272 50.6354 244.666 51.2628C243.06 51.8902 241.856 52.7559 241.053 53.8601C240.25 54.9392 239.835 56.1814 239.81 57.5867C239.76 58.741 239.986 59.7574 240.488 60.6357C241.015 61.514 241.768 62.2919 242.746 62.9695C243.75 63.6219 244.955 64.1991 246.36 64.701C247.765 65.2029 249.346 65.6421 251.103 66.0185L257.728 67.5242C261.542 68.3523 264.905 69.4565 267.816 70.8367C270.752 72.2169 273.211 73.8606 275.194 75.7678C277.201 77.675 278.72 79.8708 279.749 82.3551C280.777 84.8395 281.304 87.625 281.33 90.7117C281.304 95.58 280.075 99.7583 277.641 103.246C275.206 106.735 271.706 109.407 267.138 111.264C262.596 113.121 257.113 114.05 250.689 114.05C244.24 114.05 238.618 113.084 233.825 111.151C229.032 109.219 225.306 106.283 222.646 102.343C219.986 98.4032 218.618 93.4219 218.543 87.3992H236.385C236.535 89.8835 237.2 91.9539 238.38 93.6101C239.559 95.2664 241.178 96.5211 243.236 97.3743C245.319 98.2275 247.728 98.6541 250.463 98.6541C252.973 98.6541 255.106 98.3154 256.862 97.6378C258.644 96.9602 260.012 96.0192 260.965 94.8147C261.919 93.6101 262.408 92.2299 262.433 90.674C262.408 89.2185 261.956 87.9763 261.078 86.9475C260.2 85.8935 258.845 84.9901 257.013 84.2372C255.206 83.4593 252.897 82.7441 250.087 82.0916L242.031 80.2095C235.356 78.6788 230.099 76.2069 226.259 72.7941C222.42 69.3561 220.513 64.7136 220.538 58.8665C220.513 54.0985 221.792 49.9202 224.377 46.3317C226.962 42.7432 230.538 39.9451 235.105 37.9375C239.672 35.9299 244.879 34.9262 250.727 34.9262C256.699 34.9262 261.881 35.9425 266.273 37.9752C270.689 39.9827 274.115 42.8059 276.549 46.4446C278.983 50.0834 280.225 54.2993 280.276 59.0923H262.433ZM309.147 80.0966V113.071H290.74V35.9801H308.545V65.8679H309.185C310.49 62.3045 312.623 59.519 315.584 57.5114C318.57 55.5038 322.221 54.5 326.538 54.5C330.603 54.5 334.141 55.4034 337.153 57.2103C340.164 58.992 342.498 61.514 344.154 64.7763C345.835 68.0386 346.664 71.853 346.638 76.2195V113.071H328.232V79.8331C328.257 76.621 327.454 74.1115 325.822 72.3047C324.191 70.4979 321.895 69.5945 318.934 69.5945C317.002 69.5945 315.295 70.0211 313.815 70.8743C312.359 71.7024 311.217 72.8944 310.389 74.4503C309.586 76.0062 309.172 77.8883 309.147 80.0966ZM374.428 114.05C370.739 114.05 367.464 113.435 364.603 112.205C361.767 110.951 359.521 109.068 357.865 106.559C356.234 104.024 355.418 100.85 355.418 97.0355C355.418 93.8234 355.983 91.1132 357.112 88.9049C358.242 86.6965 359.798 84.9022 361.78 83.522C363.762 82.1418 366.046 81.1004 368.631 80.3977C371.216 79.67 373.976 79.1807 376.912 78.9297C380.199 78.6286 382.847 78.3149 384.855 77.9887C386.862 77.6373 388.318 77.148 389.221 76.5206C390.15 75.8682 390.614 74.9522 390.614 73.7727V73.5845C390.614 71.6522 389.949 70.1591 388.619 69.1051C387.289 68.0512 385.494 67.5242 383.236 67.5242C380.802 67.5242 378.844 68.0512 377.364 69.1051C375.883 70.1591 374.942 71.6146 374.541 73.4716L357.564 72.8693C358.066 69.3561 359.358 66.2192 361.441 63.4588C363.549 60.6733 366.435 58.4901 370.099 56.9091C373.788 55.3031 378.217 54.5 383.387 54.5C387.075 54.5 390.476 54.9392 393.588 55.8175C396.699 56.6707 399.409 57.9254 401.718 59.5817C404.027 61.2129 405.809 63.2204 407.063 65.6044C408.343 67.9884 408.983 70.7112 408.983 73.7727V113.071H391.668V105.016H391.216C390.187 106.973 388.87 108.629 387.264 109.984C385.683 111.34 383.813 112.356 381.655 113.033C379.522 113.711 377.113 114.05 374.428 114.05ZM380.112 102.004C382.094 102.004 383.876 101.603 385.457 100.8C387.063 99.9967 388.343 98.8925 389.296 97.4872C390.25 96.0568 390.727 94.4006 390.727 92.5185V87.0227C390.2 87.2988 389.56 87.5497 388.807 87.7756C388.079 88.0014 387.276 88.2147 386.398 88.4155C385.52 88.6163 384.616 88.7919 383.688 88.9425C382.759 89.0931 381.868 89.2311 381.015 89.3566C379.284 89.6326 377.803 90.0592 376.573 90.6364C375.369 91.2136 374.44 91.9664 373.788 92.8949C373.16 93.7983 372.847 94.8774 372.847 96.1321C372.847 98.0393 373.524 99.4948 374.879 100.499C376.26 101.502 378.004 102.004 380.112 102.004ZM441.355 113.899C437.089 113.899 433.212 112.795 429.724 110.587C426.236 108.378 423.45 105.066 421.367 100.649C419.284 96.2325 418.243 90.7493 418.243 84.1996C418.243 77.3989 419.322 71.8028 421.48 67.4112C423.638 63.0197 426.462 59.7699 429.95 57.6619C433.463 55.554 437.24 54.5 441.28 54.5C444.316 54.5 446.914 55.027 449.072 56.081C451.23 57.1099 453.012 58.4399 454.417 60.071C455.822 61.7022 456.889 63.3961 457.617 65.1527H457.993V35.9801H476.4V113.071H458.181V103.698H457.617C456.839 105.48 455.735 107.149 454.304 108.705C452.874 110.26 451.079 111.515 448.921 112.469C446.788 113.422 444.266 113.899 441.355 113.899ZM447.754 99.5576C449.988 99.5576 451.895 98.9302 453.476 97.6754C455.057 96.3956 456.274 94.6013 457.127 92.2926C457.981 89.9839 458.407 87.2737 458.407 84.162C458.407 81 457.981 78.2772 457.127 75.9936C456.299 73.71 455.082 71.9534 453.476 70.7237C451.895 69.4941 449.988 68.8793 447.754 68.8793C445.471 68.8793 443.539 69.5066 441.958 70.7614C440.377 72.0161 439.172 73.7853 438.344 76.0689C437.541 78.3525 437.139 81.0502 437.139 84.162C437.139 87.2737 437.553 89.9839 438.382 92.2926C439.21 94.6013 440.402 96.3956 441.958 97.6754C443.539 98.9302 445.471 99.5576 447.754 99.5576ZM499.296 134.753C497.087 134.753 495.005 134.577 493.047 134.226C491.09 133.9 489.408 133.46 488.003 132.908L492.069 119.545C493.875 120.148 495.506 120.499 496.962 120.599C498.443 120.7 499.71 120.461 500.764 119.884C501.843 119.332 502.671 118.341 503.248 116.911L503.963 115.179L483.411 55.2529H502.684L513.336 96.5085H513.939L524.742 55.2529H544.127L522.333 118.604C521.279 121.766 519.786 124.552 517.853 126.961C515.946 129.395 513.474 131.302 510.438 132.683C507.426 134.063 503.712 134.753 499.296 134.753ZM584.047 55.2529V68.804H546.857V55.2529H584.047ZM554.611 113.071V52.3168C554.611 47.8499 555.451 44.1485 557.133 41.2124C558.814 38.2512 561.148 36.0429 564.134 34.5874C567.12 33.1068 570.571 32.3665 574.486 32.3665C577.045 32.3665 579.455 32.5673 581.713 32.9688C583.997 33.3452 585.691 33.684 586.795 33.9851L583.859 47.461C583.181 47.2351 582.353 47.0469 581.374 46.8963C580.421 46.7458 579.517 46.6705 578.664 46.6705C576.506 46.6705 575.025 47.1473 574.222 48.1009C573.419 49.0545 573.018 50.3594 573.018 52.0156V113.071H554.611ZM592.902 113.071V55.2529H611.309V113.071H592.902ZM602.124 48.5149C599.54 48.5149 597.319 47.6617 595.462 45.9553C593.605 44.2237 592.676 42.1409 592.676 39.7067C592.676 37.2976 593.605 35.2398 595.462 33.5334C597.319 31.8019 599.54 30.9361 602.124 30.9361C604.734 30.9361 606.955 31.8019 608.787 33.5334C610.644 35.2398 611.573 37.2976 611.573 39.7067C611.573 42.1409 610.644 44.2237 608.787 45.9553C606.955 47.6617 604.734 48.5149 602.124 48.5149Z" fill="white"/>
</svg>
