<svg width="145" height="29" viewBox="0 0 145 29" fill="none" xmlns="http://www.w3.org/2000/svg">
<g clip-path="url(#clip0_0_1119)">
<path fill-rule="evenodd" clip-rule="evenodd" d="M18.1066 14.3633C18.1066 8.67168 13.445 4.05773 7.69458 4.05773L10.8518 0.932794C11.2202 0.568141 11.7199 0.363282 12.2409 0.363282L21.6148 0.363281C22.1358 0.363281 22.6356 0.568143 23.004 0.932794L35.184 12.9883C35.9512 13.7477 35.9512 14.9789 35.184 15.7382L23.004 27.7938C22.6356 28.1583 22.1358 28.3633 21.6148 28.3633H12.2409C11.7199 28.3633 11.2202 28.1583 10.8518 27.7938L7.69458 24.6688C13.445 24.6688 18.1066 20.0549 18.1066 14.3633Z" fill="#18E098"/>
<path d="M14.9633 14.3633C14.9633 10.3899 11.709 7.16884 7.69454 7.16884C3.68012 7.16884 0.425781 10.3899 0.425781 14.3633C0.425781 18.3367 3.68012 21.5577 7.69454 21.5577C11.709 21.5577 14.9633 18.3367 14.9633 14.3633Z" fill="#108B5F"/>
<path d="M53.1916 21.444H51.4754C45.7673 21.444 42.9132 19.8013 42.9132 16.516V16.3293H48.7974C48.898 17.636 50.0672 18.2893 52.3052 18.2893H52.475C53.1916 18.2893 53.7888 18.2582 54.2666 18.196C54.7444 18.1213 55.0964 18.0218 55.3227 17.8973C55.5491 17.7604 55.6999 17.6235 55.7754 17.4866C55.8634 17.3373 55.9074 17.1693 55.9074 16.9826V16.964C55.9074 16.7026 55.8382 16.4973 55.6999 16.348C55.5742 16.1862 55.2599 16.0493 54.757 15.9373C54.2666 15.8129 53.55 15.7382 52.607 15.7133L50.0044 15.6386C45.4152 15.5142 43.1207 14.1204 43.1207 11.4573V11.2893C43.1207 10.804 43.1898 10.3684 43.3281 9.98264C43.4664 9.58442 43.7179 9.19864 44.0825 8.82531C44.4471 8.45198 44.9249 8.14086 45.5158 7.89198C46.1067 7.64309 46.88 7.44398 47.8355 7.29464C48.8037 7.13286 49.9226 7.05198 51.1925 7.05198H52.871C58.554 7.05198 61.3955 8.5142 61.3955 11.4386V11.588H55.5679C55.4548 10.6049 54.3232 10.1133 52.1732 10.1133H51.9846C51.1045 10.1133 50.4256 10.1693 49.9478 10.2813C49.47 10.3809 49.1746 10.4991 49.0614 10.636C48.9482 10.7604 48.8917 10.9284 48.8917 11.14V11.1586C48.8917 11.3702 48.9545 11.5444 49.0803 11.6813C49.2186 11.8182 49.5203 11.9426 49.9855 12.0546C50.4507 12.1542 51.1045 12.2102 51.9469 12.2226L54.4741 12.2786C57.127 12.3533 59.0255 12.7204 60.1696 13.38C61.3138 14.0271 61.8858 15.0538 61.8858 16.46V16.7213C61.8858 17.2315 61.823 17.6982 61.6973 18.1213C61.5715 18.532 61.3201 18.9551 60.9429 19.3906C60.5657 19.8138 60.0628 20.1746 59.4341 20.4733C58.818 20.7595 57.9756 20.996 56.9069 21.1826C55.8508 21.3569 54.6124 21.444 53.1916 21.444ZM62.9628 21.1826V7.29464H68.0926V12.8946C69.4253 11.5755 71.1604 10.916 73.2978 10.916H73.411C74.3162 10.916 75.102 11.0404 75.7684 11.2893C76.4473 11.5258 76.9691 11.8431 77.3337 12.2413C77.6983 12.6271 77.9624 13.0315 78.1258 13.4546C78.3018 13.8653 78.3899 14.2884 78.3899 14.724V21.1826H73.2412V16.3853C73.2412 15.676 73.0401 15.116 72.6377 14.7053C72.248 14.2822 71.6319 14.0706 70.7895 14.0706C69.9471 14.0706 69.287 14.2946 68.8092 14.7426C68.3315 15.1906 68.0926 15.7818 68.0926 16.516V21.1826H62.9628ZM88.96 16.8706V16.4413L85.5653 17.0386C85.1127 17.1133 84.7921 17.2129 84.6035 17.3373C84.4149 17.4618 84.3206 17.6484 84.3206 17.8973V17.916C84.3206 18.2022 84.44 18.4449 84.6789 18.644C84.9304 18.8431 85.3453 18.9426 85.9236 18.9426C86.8289 18.9426 87.5581 18.7373 88.1113 18.3266C88.6771 17.9035 88.96 17.4182 88.96 16.8706ZM89.0543 19.8386C88.0233 20.8591 86.4391 21.3693 84.3017 21.3693H84.0943C82.5101 21.3693 81.3282 21.0582 80.5487 20.436C79.7817 19.8138 79.3983 19.0484 79.3983 18.14V17.916C79.3983 17.0449 79.7126 16.3729 80.3412 15.9C80.9824 15.4146 82.0386 15.116 83.5096 15.004L88.3942 14.5746C88.7714 14.5249 88.96 14.3631 88.96 14.0893C88.96 13.94 88.916 13.8155 88.828 13.716C88.7526 13.6164 88.5451 13.5293 88.2056 13.4546C87.8662 13.3675 87.3821 13.324 86.7534 13.324H86.678C86.1751 13.324 85.7539 13.3613 85.4144 13.436C85.0875 13.4982 84.8549 13.5978 84.7166 13.7346C84.5909 13.8715 84.5092 13.9773 84.4715 14.052C84.4463 14.1142 84.4212 14.2138 84.396 14.3506H79.6434V14.2386C79.6434 13.9026 79.6686 13.6102 79.7189 13.3613C79.7817 13.1124 79.9389 12.82 80.1903 12.484C80.4418 12.148 80.7813 11.8742 81.2088 11.6626C81.6488 11.4511 82.29 11.2706 83.1324 11.1213C83.9874 10.9595 84.9932 10.8786 86.1499 10.8786H87.2061C88.4131 10.8786 89.4566 10.9533 90.3368 11.1026C91.2169 11.2395 91.8832 11.4138 92.3359 11.6253C92.7885 11.8244 93.1468 12.0858 93.4108 12.4093C93.6749 12.7204 93.832 13.0004 93.8823 13.2493C93.9452 13.4858 93.9766 13.772 93.9766 14.108V17.8226C93.9766 18.1089 94.1212 18.252 94.4104 18.252H94.9573V21.1826H90.6951C89.7521 21.1826 89.2052 20.7346 89.0543 19.8386ZM106.74 16.1613V16.068C106.74 15.4582 106.457 14.9231 105.891 14.4626C105.338 13.9898 104.558 13.7533 103.553 13.7533H103.458C102.44 13.7533 101.711 13.9773 101.271 14.4253C100.83 14.8609 100.61 15.4084 100.61 16.068V16.1613C100.61 16.796 100.843 17.3498 101.308 17.8226C101.786 18.2955 102.509 18.532 103.477 18.532H103.553C104.571 18.532 105.357 18.2955 105.91 17.8226C106.463 17.3373 106.74 16.7835 106.74 16.1613ZM106.74 7.29464H111.87V21.1826H106.759V19.7266C106.633 19.8635 106.469 20.0066 106.268 20.156C106.08 20.2929 105.791 20.4671 105.401 20.6786C105.024 20.8778 104.527 21.0458 103.911 21.1826C103.295 21.3071 102.616 21.3693 101.874 21.3693H101.553C99.4789 21.3693 97.9324 20.8902 96.914 19.932C95.9082 18.9738 95.4052 17.7604 95.4052 16.292V15.9C95.4052 15.228 95.5121 14.612 95.7258 14.052C95.9522 13.4795 96.2916 12.9569 96.7443 12.484C97.1969 12.0111 97.8192 11.6378 98.6113 11.364C99.4034 11.0902 100.334 10.9533 101.403 10.9533H101.761C103.785 10.9533 105.445 11.4386 106.74 12.4093V7.29464ZM114.861 24.692V21.5933H117.162C117.477 21.5933 117.634 21.4875 117.634 21.276V21.2573C117.634 21.1204 117.489 20.7844 117.2 20.2493L112.41 11.14H117.879L120.708 17.5986L123.329 11.14H128.421L123.537 21.612C123.034 22.6946 122.481 23.4786 121.877 23.964C121.274 24.4493 120.525 24.692 119.633 24.692H114.861ZM137.982 7.29464V9.98264H136.398C136.121 9.98264 135.933 10.0386 135.832 10.1506C135.744 10.2626 135.7 10.4493 135.7 10.7106V11.14H137.982V14.22H135.7V21.1826H130.608V14.22H128.609V11.14H130.608V10.1506C130.608 8.24664 131.847 7.29464 134.324 7.29464H137.982ZM144.249 7.29464V10.3H139.119V7.29464H144.249ZM144.249 11.14V21.1826H139.119V11.14H144.249Z" fill="white"/>
</g>
<defs>
<clipPath id="clip0_0_1119">
<rect width="144" height="28" fill="white" transform="translate(0.425781 0.363281)"/>
</clipPath>
</defs>
</svg>
