<svg width="128" height="57" viewBox="0 0 128 57" fill="none" xmlns="http://www.w3.org/2000/svg">
<g filter="url(#filter0_i_0_1)">
<path d="M35.0499 17C32.2572 17.4255 29.7864 19.8072 30.0935 22.6144C33.0323 22.6144 35.357 19.8072 35.0499 17Z" fill="url(#paint0_linear_0_1)"/>
<path d="M40.0502 34.545C35.4008 32.0448 36.1026 26.8252 39.4362 25.1584C39.1408 24.69 38.8478 24.3104 38.5075 23.9979C36.4562 22.1139 33.3924 23.2679 30.651 23.7595C28.4421 24.1556 26.1629 22.3317 24.0417 23.0641C21.9099 23.8001 20.1215 25.8184 20.0051 29.5447C19.8379 34.8959 23.8211 40.8612 26.2774 40.8612C27.5494 40.8612 29.8742 39.1505 32.155 40.2032C35.664 41.563 37.0237 40.9928 40.0502 34.545Z" fill="url(#paint1_linear_0_1)"/>
</g>
<g filter="url(#filter1_f_0_1)">
<path d="M30.3076 22.5706C31.9305 21.8688 34.1236 19.7195 34.299 18.1405C34.0301 19.3407 31.1959 22.0813 30.3076 22.5706Z" fill="#E7E7E7"/>
</g>
<g filter="url(#filter2_f_0_1)">
<path d="M39.4749 34.2227C35.0923 31.866 35.7538 26.9459 38.896 25.3748C38.6176 24.9333 38.3415 24.5755 38.0207 24.2809C36.0871 22.505 33.1991 23.5928 30.615 24.0561C28.5329 24.4295 26.3845 22.7103 24.385 23.4006C22.3756 24.0944 20.6898 25.9969 20.5801 29.5093C20.4224 34.5535 24.1771 40.1764 26.4924 40.1764C27.6915 40.1764 29.8828 38.564 32.0327 39.5562C35.3403 40.8379 36.622 40.3005 39.4749 34.2227Z" fill="#A7A7A7" fill-opacity="0.16"/>
</g>
<g filter="url(#filter3_i_0_1)">
<path fill-rule="evenodd" clip-rule="evenodd" d="M39.9042 34.4649C35.4164 31.9348 36.1384 26.808 39.4365 25.1589C39.4314 25.1508 39.4262 25.1427 39.4211 25.1346C39.1674 25.093 38.9071 25.0714 38.6417 25.0714C36.0012 25.0714 33.8607 27.2119 33.8607 29.8524C33.8607 32.4928 36.0012 34.6334 38.6417 34.6334C39.0787 34.6334 39.502 34.5747 39.9042 34.4649Z" fill="url(#paint2_linear_0_1)"/>
</g>
<g filter="url(#filter4_d_0_1)">
<path fill-rule="evenodd" clip-rule="evenodd" d="M27.3893 23.3063C27.6787 23.5936 27.9021 23.8793 28.1081 24.1427C28.6518 24.8379 29.0736 25.3772 30.2636 25.3772C31.4429 25.3772 31.9361 24.7449 32.4815 24.0457C32.6932 23.7744 32.9127 23.4929 33.1833 23.2344C32.8232 23.3054 32.4617 23.3838 32.1017 23.4618C31.613 23.5678 31.1271 23.6732 30.6509 23.7586C29.6195 23.9435 28.5727 23.6444 27.5338 23.3475C27.4856 23.3338 27.4374 23.32 27.3893 23.3063Z" fill="url(#paint3_linear_0_1)"/>
</g>
<g filter="url(#filter5_f_0_1)">
<path fill-rule="evenodd" clip-rule="evenodd" d="M32.1906 39.6343C32.1927 39.5456 32.1938 39.4562 32.1938 39.366C32.1938 37.1392 31.5261 35.334 30.7025 35.334C29.8789 35.334 29.2112 37.1392 29.2112 39.366C29.2112 39.4035 29.2114 39.4408 29.2117 39.478C29.9626 39.2399 30.8311 39.0607 31.6904 39.4549C31.8646 39.522 32.031 39.5822 32.1906 39.6343Z" fill="#252728"/>
</g>
<g filter="url(#filter6_f_0_1)">
<ellipse cx="24.9563" cy="31.5012" rx="2.66115" ry="6.34953" transform="rotate(-15.4307 24.9563 31.5012)" fill="#5F5F5F"/>
</g>
<defs>
<filter id="filter0_i_0_1" x="20" y="17" width="20.0502" height="29.7101" filterUnits="userSpaceOnUse" color-interpolation-filters="sRGB">
<feFlood flood-opacity="0" result="BackgroundImageFix"/>
<feBlend mode="normal" in="SourceGraphic" in2="BackgroundImageFix" result="shape"/>
<feColorMatrix in="SourceAlpha" type="matrix" values="0 0 0 0 0 0 0 0 0 0 0 0 0 0 0 0 0 0 127 0" result="hardAlpha"/>
<feOffset dy="5.84889"/>
<feGaussianBlur stdDeviation="2.92444"/>
<feComposite in2="hardAlpha" operator="arithmetic" k2="-1" k3="1"/>
<feColorMatrix type="matrix" values="0 0 0 0 0.766667 0 0 0 0 0.766667 0 0 0 0 0.766667 0 0 0 0.25 0"/>
<feBlend mode="normal" in2="shape" result="effect1_innerShadow_0_1"/>
</filter>
<filter id="filter1_f_0_1" x="14.2231" y="2.05601" width="36.1603" height="36.599" filterUnits="userSpaceOnUse" color-interpolation-filters="sRGB">
<feFlood flood-opacity="0" result="BackgroundImageFix"/>
<feBlend mode="normal" in="SourceGraphic" in2="BackgroundImageFix" result="shape"/>
<feGaussianBlur stdDeviation="8.04222" result="effect1_foregroundBlur_0_1"/>
</filter>
<filter id="filter2_f_0_1" x="11.8019" y="14.462" width="36.4463" height="34.4877" filterUnits="userSpaceOnUse" color-interpolation-filters="sRGB">
<feFlood flood-opacity="0" result="BackgroundImageFix"/>
<feBlend mode="normal" in="SourceGraphic" in2="BackgroundImageFix" result="shape"/>
<feGaussianBlur stdDeviation="4.38667" result="effect1_foregroundBlur_0_1"/>
</filter>
<filter id="filter3_i_0_1" x="33.8607" y="19.2225" width="6.04352" height="15.4109" filterUnits="userSpaceOnUse" color-interpolation-filters="sRGB">
<feFlood flood-opacity="0" result="BackgroundImageFix"/>
<feBlend mode="normal" in="SourceGraphic" in2="BackgroundImageFix" result="shape"/>
<feColorMatrix in="SourceAlpha" type="matrix" values="0 0 0 0 0 0 0 0 0 0 0 0 0 0 0 0 0 0 127 0" result="hardAlpha"/>
<feOffset dy="-5.84889"/>
<feGaussianBlur stdDeviation="2.92444"/>
<feComposite in2="hardAlpha" operator="arithmetic" k2="-1" k3="1"/>
<feColorMatrix type="matrix" values="0 0 0 0 0.754167 0 0 0 0 0.754167 0 0 0 0 0.754167 0 0 0 0.25 0"/>
<feBlend mode="normal" in2="shape" result="effect1_innerShadow_0_1"/>
</filter>
<filter id="filter4_d_0_1" x="15.6915" y="11.5366" width="29.1896" height="25.5383" filterUnits="userSpaceOnUse" color-interpolation-filters="sRGB">
<feFlood flood-opacity="0" result="BackgroundImageFix"/>
<feColorMatrix in="SourceAlpha" type="matrix" values="0 0 0 0 0 0 0 0 0 0 0 0 0 0 0 0 0 0 127 0" result="hardAlpha"/>
<feOffset/>
<feGaussianBlur stdDeviation="5.84889"/>
<feComposite in2="hardAlpha" operator="out"/>
<feColorMatrix type="matrix" values="0 0 0 0 0.870833 0 0 0 0 0.870833 0 0 0 0 0.870833 0 0 0 0.22 0"/>
<feBlend mode="normal" in2="BackgroundImageFix" result="effect1_dropShadow_0_1"/>
<feBlend mode="normal" in="SourceGraphic" in2="effect1_dropShadow_0_1" result="shape"/>
</filter>
<filter id="filter5_f_0_1" x="2.89118" y="9.01402" width="55.6227" height="56.9403" filterUnits="userSpaceOnUse" color-interpolation-filters="sRGB">
<feFlood flood-opacity="0" result="BackgroundImageFix"/>
<feBlend mode="normal" in="SourceGraphic" in2="BackgroundImageFix" result="shape"/>
<feGaussianBlur stdDeviation="13.16" result="effect1_foregroundBlur_0_1"/>
</filter>
<filter id="filter6_f_0_1" x="-77.5468" y="-74.0919" width="205.006" height="211.186" filterUnits="userSpaceOnUse" color-interpolation-filters="sRGB">
<feFlood flood-opacity="0" result="BackgroundImageFix"/>
<feBlend mode="normal" in="SourceGraphic" in2="BackgroundImageFix" result="shape"/>
<feGaussianBlur stdDeviation="49.7156" result="effect1_foregroundBlur_0_1"/>
</filter>
<linearGradient id="paint0_linear_0_1" x1="30.0251" y1="17" x2="30.0251" y2="40.8612" gradientUnits="userSpaceOnUse">
<stop stop-color="#3B3F41"/>
<stop offset="1" stop-color="#1C1E1F"/>
</linearGradient>
<linearGradient id="paint1_linear_0_1" x1="30.0251" y1="17" x2="30.0251" y2="40.8612" gradientUnits="userSpaceOnUse">
<stop stop-color="#3B3F41"/>
<stop offset="1" stop-color="#1C1E1F"/>
</linearGradient>
<linearGradient id="paint2_linear_0_1" x1="36.8824" y1="25.0714" x2="38.247" y2="34.765" gradientUnits="userSpaceOnUse">
<stop stop-color="#202324"/>
<stop offset="1" stop-color="#5C6063"/>
</linearGradient>
<linearGradient id="paint3_linear_0_1" x1="30.2863" y1="23.2344" x2="30.2839" y2="25.818" gradientUnits="userSpaceOnUse">
<stop stop-color="#505050"/>
<stop offset="1" stop-color="#3E4445"/>
</linearGradient>
</defs>
</svg>
